<?xml version="1.0"?>
<svg xmlns="http://www.w3.org/2000/svg" height="512px" viewBox="-31 0 512 512" width="512px" nighteye="disabled" class=""><g><path d="m268.800781 0h-253.769531c-8.300781 0-15.03125 6.730469-15.03125 15.03125v481.9375c0 8.300781 6.730469 15.03125 15.03125 15.03125h253.769531c8.300781 0 15.027344-6.730469 15.027344-15.03125v-481.9375c.003906-8.300781-6.726563-15.03125-15.027344-15.03125zm0 0" fill="#ff7361" data-original="#FF7361" class=""/><path d="m268.800781 0h-126.886719v512h126.886719c8.300781 0 15.03125-6.730469 15.03125-15.03125v-481.9375c0-8.300781-6.730469-15.03125-15.03125-15.03125zm0 0" fill="#d64d4d" data-original="#D64D4D" class=""/><path d="m95.859375 241.472656h-41.648437c-8.300782 0-15.027344 6.726563-15.027344 15.027344s6.726562 15.03125 15.027344 15.03125h41.648437c8.300781 0 15.03125-6.730469 15.03125-15.03125s-6.730469-15.027344-15.03125-15.027344zm0 0" fill="#d64d4d" data-original="#D64D4D" class=""/><path d="m298.308594 39.089844c-83.300782 0-151.066406 67.769531-151.066406 151.066406 0 83.300781 67.769531 151.070312 151.066406 151.070312s151.070312-67.769531 151.070312-151.070312c0-83.296875-67.769531-151.066406-151.070312-151.066406zm0 0" fill="#9a9bab" data-original="#9A9BAB" class=""/><path d="m298.308594 39.089844v302.136718c83.300781 0 151.066406-67.769531 151.066406-151.066406 0-83.300781-67.765625-151.070312-151.066406-151.070312zm0 0" fill="#515260" data-original="#515260" class=""/><path d="m298.308594 108.078125c-26.394532 0-47.867188 21.476563-47.867188 47.871094v25.074219c0 8.300781 6.726563 15.03125 15.027344 15.03125s15.03125-6.730469 15.03125-15.03125v-25.074219c0-9.824219 7.988281-17.8125 17.808594-17.8125 9.820312 0 17.8125 7.992187 17.8125 17.8125v25.074219c0 8.300781 6.726562 15.03125 15.027344 15.03125 8.300781 0 15.03125-6.730469 15.03125-15.03125v-25.074219c0-26.398438-21.472657-47.871094-47.871094-47.871094zm0 0" fill="#edeef2" data-original="#EDEEF2"/><path d="m298.308594 108.078125v30.058594c9.820312 0 17.8125 7.992187 17.8125 17.8125v25.074219c0 8.300781 6.726562 15.03125 15.027344 15.03125 8.300781 0 15.03125-6.730469 15.03125-15.03125v-25.074219c0-26.398438-21.472657-47.871094-47.871094-47.871094zm0 0" fill="#9a9bab" data-original="#9A9BAB" class=""/><path d="m343.117188 171.527344h-89.613282c-8.300781 0-15.03125 6.730468-15.03125 15.027344v67.984374c0 8.300782 6.730469 15.027344 15.03125 15.027344h89.613282c8.300781 0 15.03125-6.726562 15.03125-15.027344v-67.984374c0-8.296876-6.730469-15.027344-15.03125-15.027344zm0 0" fill="#fffa94" data-original="#FFFA94"/><path d="m343.117188 171.527344h-44.808594v98.039062h44.808594c8.300781 0 15.03125-6.726562 15.03125-15.027344v-67.984374c0-8.296876-6.730469-15.027344-15.03125-15.027344zm0 0" fill="#ffbd61" data-original="#FFBD61"/><style xmlns="">#yddContainer{display:block;font-family:Microsoft YaHei;position:relative;width:100%;height:100%;top:-4px;left:-4px;font-size:12px;border:1px solid}#yddTop{display:block;height:22px}#yddTopBorderlr{display:block;position:static;height:17px;padding:2px 28px;line-height:17px;font-size:12px;color:#5079bb;font-weight:bold;border-style:none solid;border-width:1px}#yddTopBorderlr .ydd-sp{position:absolute;top:2px;height:0;overflow:hidden}.ydd-icon{left:5px;width:17px;padding:0px 0px 0px 0px;padding-top:17px;background-position:-16px -44px}.ydd-close{right:5px;width:16px;padding-top:16px;background-position:left -44px}#yddKeyTitle{float:left;text-decoration:none}#yddMiddle{display:block;margin-bottom:10px}.ydd-tabs{display:block;margin:5px 0;padding:0 5px;height:18px;border-bottom:1px solid}.ydd-tab{display:block;float:left;height:18px;margin:0 5px -1px 0;padding:0 4px;line-height:18px;border:1px solid;border-bottom:none}.ydd-trans-container{display:block;line-height:160%}.ydd-trans-container a{text-decoration:none;}#yddBottom{position:absolute;bottom:0;left:0;width:100%;height:22px;line-height:22px;overflow:hidden;background-position:left -22px}.ydd-padding010{padding:0 10px}#yddWrapper{color:#252525;z-index:10001;background:url(chrome-extension://eopjamdnofihpioajgfdikhhbobonhbb/ab20.png);}#yddContainer{background:#fff;border-color:#4b7598}#yddTopBorderlr{border-color:#f0f8fc}#yddWrapper .ydd-sp{background-image:url(chrome-extension://eopjamdnofihpioajgfdikhhbobonhbb/ydd-sprite.png)}#yddWrapper a,#yddWrapper a:hover,#yddWrapper a:visited{color:#50799b}#yddWrapper .ydd-tabs{color:#959595}.ydd-tabs,.ydd-tab{background:#fff;border-color:#d5e7f3}#yddBottom{color:#363636}#yddWrapper{min-width:250px;max-width:400px;}</style></g> </svg>
