<?xml version="1.0"?>
<svg xmlns="http://www.w3.org/2000/svg" height="512px" viewBox="0 0 512 512" width="512px" nighteye="disabled" class=""><g><path d="m512 256c0 141.386719-114.613281 256-256 256s-256-114.613281-256-256 114.613281-256 256-256 256 114.613281 256 256zm0 0" fill="#ea2828" data-original="#EA2828" class="active-path" style="fill:#E2E222" data-old_color="#E4E422"/><path d="m511.640625 269.578125-180.476563-180.929687-139.855468-.242188-73.105469 330.066406 88.828125 88.832032c15.855469 3.066406 32.21875 4.695312 48.96875 4.695312 136.828125 0 248.582031-107.351562 255.640625-242.421875zm0 0" fill="#c61a1a" data-original="#C61A1A" class="" style="fill:#E7F075" data-old_color="#E8F362"/><path d="m360.105469 300.511719h-208.210938v-139.90625c0-57.402344 46.703125-104.105469 104.105469-104.105469s104.105469 46.703125 104.105469 104.105469zm-167.210938-41h126.210938v-98.90625c0-34.796875-28.308594-63.105469-63.105469-63.105469s-63.105469 28.308594-63.105469 63.105469zm0 0" fill="#ffce00" data-original="#FFCE00"/><path d="m360.105469 160.605469c0-57.402344-46.703125-104.105469-104.105469-104.105469-.160156 0-.316406.003906-.476562.007812v41.003907c.160156 0 .316406-.011719.476562-.011719 34.796875 0 63.105469 28.308594 63.105469 63.105469v98.90625h-63.582031v41h104.582031zm0 0" fill="#fdba12" data-original="#FDBA12" class=""/><path d="m118.203125 210.398438h275.59375v208.074218h-275.59375zm0 0" fill="#414952" data-original="#414952" class=""/><path d="m255.523438 210.398438h138.273437v208.074218h-138.273437zm0 0" fill="#333940" data-original="#333940" class=""/><path d="m187.75 370.066406c-16.152344 0-29.246094-13.09375-29.246094-29.25v-47.566406c0-16.152344 13.09375-29.25 29.246094-29.25 16.15625 0 29.25 13.097656 29.25 29.25v47.566406c0 16.15625-13.09375 29.25-29.25 29.25zm0 0" fill="#afb4c8" data-original="#AFB4C8"/><style xmlns="">#yddContainer{display:block;font-family:Microsoft YaHei;position:relative;width:100%;height:100%;top:-4px;left:-4px;font-size:12px;border:1px solid}#yddTop{display:block;height:22px}#yddTopBorderlr{display:block;position:static;height:17px;padding:2px 28px;line-height:17px;font-size:12px;color:#5079bb;font-weight:bold;border-style:none solid;border-width:1px}#yddTopBorderlr .ydd-sp{position:absolute;top:2px;height:0;overflow:hidden}.ydd-icon{left:5px;width:17px;padding:0px 0px 0px 0px;padding-top:17px;background-position:-16px -44px}.ydd-close{right:5px;width:16px;padding-top:16px;background-position:left -44px}#yddKeyTitle{float:left;text-decoration:none}#yddMiddle{display:block;margin-bottom:10px}.ydd-tabs{display:block;margin:5px 0;padding:0 5px;height:18px;border-bottom:1px solid}.ydd-tab{display:block;float:left;height:18px;margin:0 5px -1px 0;padding:0 4px;line-height:18px;border:1px solid;border-bottom:none}.ydd-trans-container{display:block;line-height:160%}.ydd-trans-container a{text-decoration:none;}#yddBottom{position:absolute;bottom:0;left:0;width:100%;height:22px;line-height:22px;overflow:hidden;background-position:left -22px}.ydd-padding010{padding:0 10px}#yddWrapper{color:#252525;z-index:10001;background:url(chrome-extension://eopjamdnofihpioajgfdikhhbobonhbb/ab20.png);}#yddContainer{background:#fff;border-color:#4b7598}#yddTopBorderlr{border-color:#f0f8fc}#yddWrapper .ydd-sp{background-image:url(chrome-extension://eopjamdnofihpioajgfdikhhbobonhbb/ydd-sprite.png)}#yddWrapper a,#yddWrapper a:hover,#yddWrapper a:visited{color:#50799b}#yddWrapper .ydd-tabs{color:#959595}.ydd-tabs,.ydd-tab{background:#fff;border-color:#d5e7f3}#yddBottom{color:#363636}#yddWrapper{min-width:250px;max-width:400px;}</style></g> </svg>
